Coordinates
version=1
nRows=10
nColumns=46
inDegrees=yes

Units are S.I. units (second, meters, Newtons, ...)
Angles are in degrees.

endheader
time	pelvis_tilt	pelvis_list	pelvis_rotation	pelvis_tx	pelvis_ty	pelvis_tz	bb_angle	bb_tx	bb_ty	bb_tz	hip_flexion_r	hip_adduction_r	hip_rotation_r	knee_angle_r	knee_angle_r_beta	ankle_angle_r	subtalar_angle_r	mtp_angle_r	crank_angle_r	hip_flexion_l	hip_adduction_l	hip_rotation_l	knee_angle_l	knee_angle_l_beta	ankle_angle_l	subtalar_angle_l	mtp_angle_l	crank_angle_l	lumbar_extension	lumbar_bending	lumbar_rotation	arm_flex_r	arm_add_r	arm_rot_r	elbow_flex_r	pro_sup_r	wrist_flex_r	wrist_dev_r	arm_flex_l	arm_add_l	arm_rot_l	elbow_flex_l	pro_sup_l	wrist_flex_l	wrist_dev_l
      2.50500000	    -17.61691008	      5.25581847	      4.19747364	      0.15360763	      1.06085302	     -0.29686231	      0.00000000	      0.50000000	      0.00000000	      0.25000000	     55.84002458	     -4.60437874	     11.26245107	     70.96452287	      1.23856458	    -12.36081188	    -19.85119213	      0.00000000	      0.00000000	     80.08902342	     -2.06132177	     -2.92421305	     79.05952973	      1.37984910	     19.84019704	     -5.57967708	      0.00000000	      0.00000000	    -68.69802478	    -12.57641048	     -9.36482347	     86.24407021	    -22.38824855	     13.14027630	     58.91767916	     42.37185345	      0.00000000	      0.00000000	     89.73421758	      0.78419936	     21.63087746	     76.13054486	     37.63729874	      0.00000000	      0.00000000
      2.51000000	    -17.76534088	      5.06035245	      4.01671485	      0.15410580	      1.06080850	     -0.29675806	      0.00000000	      0.50000000	      0.00000000	      0.25000000	     56.31990543	     -4.30523481	     11.20135142	     71.86339213	      1.25425280	    -11.97468133	    -19.71752019	      0.00000000	      0.00000000	     79.76872306	     -2.17599947	     -2.78691406	     78.07107316	      1.36259728	     19.32795346	     -5.76470450	      0.00000000	      0.00000000	    -68.71302019	    -12.67455952	     -9.13564396	     86.11668589	    -22.76831096	     13.19316835	     59.67543945	     42.33276046	      0.00000000	      0.00000000	     89.73526474	      0.94856739	     21.59101255	     76.41847360	     37.44088632	      0.00000000	      0.00000000
      2.51500000	    -17.95365632	      4.87076862	      3.78055212	      0.15466261	      1.06069288	     -0.29657262	      0.00000000	      0.50000000	      0.00000000	      0.25000000	     56.86984802	     -3.94926777	     11.15883883	     72.77947886	      1.27024153	    -11.80594871	    -19.88054020	      0.00000000	      0.00000000	     79.48197678	     -2.36334987	     -2.69100416	     77.08043697	      1.34530741	     18.75978242	     -5.96780990	      0.00000000	      0.00000000	    -68.69370617	    -12.82522151	     -8.81895857	     85.87299558	    -23.26182451	     12.91973705	     60.85823178	     42.42603996	      0.00000000	      0.00000000	     89.73566316	      1.12547719	     21.54459058	     76.53499147	     37.83545203	      0.00000000	      0.00000000
      2.52000000	    -17.96468735	      4.80831999	      3.68196804	      0.15516408	      1.06088529	     -0.29660789	      0.00000000	      0.50000000	      0.00000000	      0.25000000	     57.20816273	     -3.83084800	     11.13453553	     73.72092679	      1.28667290	    -11.10055782	    -19.50503715	      0.00000000	      0.00000000	     78.96968761	     -2.35086080	     -2.66946102	     76.05683960	      1.32744227	     18.14134599	     -6.20330176	      0.00000000	      0.00000000	    -68.91410157	    -12.84206712	     -9.13828121	     86.15952223	    -23.07893560	     13.43804932	     60.55379929	     42.54353530	      0.00000000	      0.00000000	     89.73202428	      0.62992371	     21.58106913	     77.96577193	     36.70174742	      0.00000000	      0.00000000
      2.52500000	    -18.14319151	      4.53540529	      3.48769072	      0.15568435	      1.06068321	     -0.29648429	      0.00000000	      0.50000000	      0.00000000	      0.25000000	     57.76817782	     -3.45662393	     11.00087496	     74.65586394	      1.30299063	    -10.94320734	    -19.66916344	      0.00000000	      0.00000000	     78.70540713	     -2.52903589	     -2.47562432	     75.09570248	      1.31066726	     17.52242569	     -6.43401501	      0.00000000	      0.00000000	    -68.83207834	    -12.94225411	     -8.63931127	     85.84840890	    -23.74280428	     13.32701270	     61.78115852	     42.69675527	      0.00000000	      0.00000000	     89.73420662	      1.01863383	     21.50715865	     77.58831749	     37.63469347	      0.00000000	      0.00000000
      2.53000000	    -18.21433876	      4.50636022	      3.33530237	      0.15620942	      1.06071041	     -0.29647410	      0.00000000	      0.50000000	      0.00000000	      0.25000000	     58.24804065	     -3.34408083	     11.00915440	     75.66474099	      1.32059886	    -10.37698436	    -19.27747946	      0.00000000	      0.00000000	     78.23192524	     -2.56749780	     -2.50616780	     74.04765534	      1.29237539	     16.85403793	     -6.68387239	      0.00000000	      0.00000000	    -68.94180954	    -13.01568941	     -8.97301952	     86.02888416	    -23.48291482	     13.71425655	     61.65263772	     42.64198645	      0.00000000	      0.00000000	     89.72858783	      0.43089682	     21.61746299	     78.92916541	     36.76822237	      0.00000000	      0.00000000
      2.53500000	    -18.30982180	      4.27630661	      3.20498351	      0.15681391	      1.06077473	     -0.29639557	      0.00000000	      0.50000000	      0.00000000	      0.25000000	     58.72790614	     -3.10809896	     10.80908593	     76.59412720	      1.33681971	    -10.03312334	    -19.17397805	      0.00000000	      0.00000000	     77.80950563	     -2.68078431	     -2.34351402	     73.01279998	      1.27431376	     16.28378310	     -6.77345072	      0.00000000	      0.00000000	    -68.93517544	    -13.06844849	     -8.61969783	     85.81907579	    -24.14536040	     13.99035490	     62.31173558	     42.68373723	      0.00000000	      0.00000000	     89.72994841	      0.69384432	     21.50026812	     78.89620641	     37.22958557	      0.00000000	      0.00000000
      2.54000000	    -18.39218572	      4.05596136	      3.06007180	      0.15732632	      1.06066375	     -0.29633251	      0.00000000	      0.50000000	      0.00000000	      0.25000000	     59.19808216	     -2.83592116	     10.66437374	     77.56601997	      1.35378244	     -9.57611727	    -19.10027619	      0.00000000	      0.00000000	     77.42737148	     -2.80960712	     -2.18859283	     72.05268339	      1.25755656	     15.48832366	     -6.93980438	      0.00000000	      0.00000000	    -68.96504759	    -13.11394330	     -8.51923984	     85.92544595	    -24.33402044	     14.21089435	     62.67272195	     42.85167834	      0.00000000	      0.00000000	     89.72633286	      0.66077564	     21.44538896	     79.12983151	     38.04596856	      0.00000000	      0.00000000
      2.54500000	    -18.53495508	      3.91743591	      2.90825217	      0.15778460	      1.06066972	     -0.29623462	      0.00000000	      0.50000000	      0.00000000	      0.25000000	     59.72790825	     -2.59946167	     10.57558178	     78.50213558	      1.37012074	     -9.18358268	    -19.07378227	      0.00000000	      0.00000000	     77.02167197	     -2.99509877	     -2.24119654	     70.97131237	      1.23868308	     14.73916484	     -7.01225881	      0.00000000	      0.00000000	    -68.94443289	    -13.16627595	     -8.46069526	     85.80943227	    -24.30439741	     13.79325942	     63.21374261	     42.96403248	      0.00000000	      0.00000000	     89.72372284	      0.42904852	     21.49741997	     79.78213530	     38.03906379	      0.00000000	      0.00000000
      2.55000000	    -18.55719059	      3.72043045	      2.79232040	      0.15829332	      1.06069596	     -0.29626570	      0.00000000	      0.50000000	      0.00000000	      0.25000000	     60.15524521	     -2.40673026	     10.39268278	     79.48357534	      1.38725009	     -8.67754924	    -18.87975820	      0.00000000	      0.00000000	     76.51618203	     -3.06132331	     -2.08135675	     69.94009644	      1.22068496	     14.02966494	     -7.16527826	      0.00000000	      0.00000000	    -68.98682047	    -13.14096405	     -8.38629379	     85.91675040	    -24.58816339	     14.74003916	     63.24227240	     42.90941683	      0.00000000	      0.00000000	     89.72075718	      0.29862143	     21.45211803	     80.26223731	     37.65869884	      0.00000000	      0.00000000
